<?xml version="1.0" encoding="UTF-8" standalone="no"?>
<!-- Created with Inkscape (http://www.inkscape.org/) -->
<svg id="svg4136" xmlns:rdf="http://www.w3.org/1999/02/22-rdf-syntax-ns#" xmlns="http://www.w3.org/2000/svg" height="355" viewBox="0 0 583 355" width="583" version="1.1" xmlns:cc="http://creativecommons.org/ns#" xmlns:dc="http://purl.org/dc/elements/1.1/">
 <metadata id="metadata4142">
  <rdf:RDF>
   <cc:Work rdf:about="">
    <dc:format>image/svg+xml</dc:format>
    <dc:type rdf:resource="http://purl.org/dc/dcmitype/StillImage"/>
    <dc:title/>
   </cc:Work>
  </rdf:RDF>
 </metadata>
 <path id="path4146" fill="#fff" d="m149.69 336.52c-28.436-7.3493-42.271-24.146-42.271-51.319 0-18.391 5.8794-38.838 18.891-65.697 10.74-22.17 21.773-40.865 43.652-73.961 3.424-5.1796-0.37629-1.8235-15.031 13.275-7.6939 7.9265-17.819 17.309-22.5 20.851-9.2825 7.0228-24.186 14.866-26.536 13.965-2.1339-0.81885-1.8568-6.961 0.52458-11.629 2.482-4.865 2.4896-5.3324 0.0657-4.0352-2.6273 1.4061-10.2 1.2524-12.152-0.24662-4.5552-3.4974-4.658-8.8423-0.3153-16.396 1.3211-2.2979 2.402-4.4761 2.402-4.8404 0-0.94509-11.219 5.3427-36.5 20.456-20.579 12.303-40.75 22.941-46.5 24.523-1.375 0.37842 2.45-2.1758 8.5-5.6761 37.854-21.901 68.074-46.969 105.31-87.356l7.3106-7.9292-0.42201 7c-0.5349 8.8724-3.4798 15.453-15.216 34-7.9494 12.563-10.655 17.854-12.955 25.336-0.64199 2.0886-0.50936 2.2242 1.253 1.281 3.2866-1.759 10.313-9.0892 18.544-19.346 8.4518-10.532 14.071-15.861 19.885-18.858 4.5524-2.3469 4.7898-2.3536 4.7898-0.13449 0 3.6643-6.9709 16.047-14.287 25.38-8.709 11.109-12.97 17.569-12.507 18.96 0.38882 1.1664 16.672-12.849 29.63-25.502 9.6684-9.4414 37.429-39.129 49.666-53.114 13.544-15.478 38.975-43.88 48.354-54.002 13.472-14.54 25.478-22.903 35.894-25.003 3.71-0.7482 3.9453-0.09647 1.8102 5.0135-2.4033 5.752-6.5479 10.2-18.16 19.488-17.375 13.898-30.113 28.516-52.618 60.384-6.6489 9.4148-14.495 20.366-17.436 24.336-2.9406 3.9701-5.3466 7.4629-5.3466 7.7618 0 0.29888 1.7321 0.26645 3.8492-0.0721 5.8074-0.92864 9.3127 1.401 13.574 9.0214 3.6441 6.5162 5.1983 8.282 6.3106 7.1697 0.33054-0.33055 1.1326-6.3532 1.7824-13.384 0.64979-7.0305 1.7097-13.77 2.3554-14.976 1.0837-2.0249 4.9344-4.8347 5.5783-4.0704 2.7811 3.3009 3.2557 11.003 1.4331 23.257-0.61416 4.1294-0.82537 8.6685-0.46935 10.087 0.63332 2.5234 0.78169 2.5645 6.8667 1.9055 3.4206-0.37048 11.818-2.4367 18.661-4.5915 6.8426-2.1549 14.493-4.1821 17-4.5049l4.5588-0.58698-3.3392 3.5219c-6.8395 7.2138-17.938 11.252-34.073 12.397-10.393 0.73772-10.032 0.22527-7.3979 10.504 1.9634 7.6618 1.127 9.8411-3.7769 9.8411-3.3406 0-4.4401-1.6642-5.4208-8.2049-0.38802-2.5877-1.3484-5.5127-2.1341-6.5-1.3687-1.7199-1.4795-1.714-2.6432 0.14045-3.8264 6.0974-9.1998 8.5533-18.715 8.5533-11.919 0-19-4.4396-19-11.912 0-5.7061 2.1609-7.4235 13.898-11.045 5.5121-1.701 10.279-3.5092 10.594-4.0182 0.3146-0.50903-0.45484-1.5958-1.7099-2.415-1.7626-1.1505-3.8462-1.3312-9.1558-0.79393l-6.874 0.69555-15.126 25.115c-8.3193 13.813-20.227 34.837-26.462 46.719-19.427 37.021-24.716 52.858-24.012 71.891 0.32503 8.7804 0.79336 11.142 3.1757 16.011 6.8256 13.951 21.177 20.228 46.173 20.196 14.943-0.0194 24.07-1.4498 38.875-6.0923 8.9837-2.8172 24.464-10.4 27.038-13.245 1.5723-1.7373 1.3184-1.9315-5.3156-4.0646-29.865-9.6028-50.002-35.04-47.702-60.256 1.2509-13.714 6.5376-22.375 19.09-31.275 17.118-12.138 34.919-17.542 79.422-24.112 27.21-4.0172 44.839-7.4176 54.092-10.433 9.5763-3.1214 18-7.0607 18-8.4177 0-4.0696-29.66-27.085-52.758-40.938-20.02-12.008-26.386-22.808-19.607-33.263 3.1756-4.8975 8.9388-8.8155 16.364-11.125 8.5131-2.6478 22.753-6.8381 44.307 0.57738 23.731 8.1647 42.974 18.676 50.332 34.02 2.1845 4.5552 2.8156 7.5176 3.1597 14.831 1.4759 19.451-9.6412 30.259-15.273 35.843-2.3705 2.3765-3.5257 5.5523-3.5257 6.25 0 1.601 13.988 1.6848 40 0.2394 52.318-2.907 105.09-12.49 143.67-26.091 4.4935-1.584 8.4132-2.88 8.7104-2.88 1.0623 0-12.966 12.638-17.38 15.658-15.815 10.819-36.624 17.486-69.5 22.269-10.704 1.5572-80.561 8.0731-86.551 8.0731-1.7045 0-0.23349 3.5072 6.711 16 8.7768 15.789 10.544 21.749 10.524 35.5-0.012 8.2945-0.52196 12.599-2.0732 17.5-8.6438 27.311-35.299 44.21-79.842 50.619-14.744 2.1214-48.871 2.1812-64.768 0.11341l-11-1.4308-10 6.0261c-35.602 21.454-70.45 29.852-96.229 23.189zm174.27-40.511c32.861-2.9093 56.083-11.34 68.859-24.998 2.6036-2.7835 6.153-8.0863 7.8874-11.784 2.7006-5.7574 3.2104-8.1153 3.5488-16.413 0.27197-6.6674-0.12218-12.015-1.2637-17.146-3.3726-15.159-14.111-32.038-22.048-34.658-2.3397-0.77218-5.1364-0.78292-9.657-0.0371-3.4999 0.57742-18.963 1.9435-34.363 3.0357-64.664 4.5861-97.567 10.428-118.63 21.062-8.763 4.4235-16.281 12.222-18.284 18.966-2.047 6.8929-1.9539 17.216 0.20894 23.169 5.1628 14.212 19.653 25.172 43.461 32.872l9.7522 3.1544 14.248-8.7682c13.205-8.1266 43.781-28.446 61.998-41.201 4.2625-2.9846 7.75-5.2383 7.75-5.0084 0 0.22993-3.664 3.5299-8.1423 7.3332-4.4783 3.8034-8.6408 7.369-9.25 7.9237-3.3577 3.0572-19.209 15.813-34.108 27.449-9.35 7.3017-17.144 13.656-17.321 14.121-0.61607 1.6243 39.833 2.3021 55.358 0.92769zm-120.46-132c4.542 0 5.161-1.7572 1.8021-5.1161-2.9172-2.9172-11.367-2.2404-14.095 1.1289-1.0112 1.2488-1.6252 2.484-1.3643 2.7448 0.8401 0.84011 7.0327 2.0467 8.4075 1.6382 0.73248-0.21765 3.095-0.39573 5.25-0.39573zm167.62-9.5231c3.0925-2.7052 6.2459-6.721 7.8461-9.9918 6.3962-14.244-2.2386-28.219-10.48-36.485-8.8415-8.7588-15.705-13.041-27.81-17.349-7.9372-2.8249-20.702-7.1744-33.826-4.0358-12.324 3.9108-17.561 6.7972-19.369 13.925l8.5779 7.4679c9.1561 7.9712 23.135 18.354 43.356 32.202 6.875 4.7084 15.425 10.853 19 13.655 3.575 2.8019 6.7327 5.1033 7.0172 5.1142 0.28444 0.0109 2.8439-2.0155 5.6877-4.5032z"/>
</svg>
