<?xml version="1.0" encoding="UTF-8" standalone="no"?>
<svg id="svg4138" xmlns:rdf="http://www.w3.org/1999/02/22-rdf-syntax-ns#" xmlns="http://www.w3.org/2000/svg" height="500" width="500" version="1.1" xmlns:cc="http://creativecommons.org/ns#" xmlns:dc="http://purl.org/dc/elements/1.1/" viewBox="0 0 500.00001 500.00001">
 <g id="layer1" transform="translate(0 -552.36)">
  <path id="path5324" style="fill:#0f1a30" d="m6.8249 802.36v-243.18h243.18 243.18v243.18 243.18h-243.18-243.18v-243.18zm457.17 0v-214.8h-214.4-214.4v214.8 214.8h214.4 214.4v-214.8zm-297.89 181.04c-22.42-3.5863-39.975-15.069-51.385-33.61-3.7514-6.0958-3.983-6.7509-2.7028-7.6439 0.77015-0.53719 8.9593-5.5365 18.198-11.11l16.798-10.133 3.6602 5.8725c4.854 7.7879 9.3562 12.292 14.76 14.766 4.0471 1.8528 5.2139 2.0068 13.095 1.7274 10.116-0.35851 14.328-2.1156 18.145-7.569 4.6487-6.6409 4.6628-6.9281 4.6782-95.041l0.0141-80.45h22.738 22.738l-0.30065 84.098c-0.27493 76.906-0.42309 84.618-1.7324 90.177-4.7532 20.183-14.932 33.965-30.879 41.812-10.896 5.3613-17.868 6.8945-32.829 7.2192-6.9102 0.14999-13.658 0.0977-14.996-0.11628zm175.09-0.0172c-7.3588-0.92223-19.231-3.9672-25.844-6.6282-17.412-7.0068-31.904-19.413-41.446-35.48l-1.9851-3.3426 17.783-10.235c9.7807-5.6291 18.072-10.234 18.426-10.233 0.35336 0.00081 1.9192 1.8875 3.4795 4.1924 6.7769 10.011 16.501 17.453 26.749 20.471 5.9968 1.7664 17.098 2.4318 23.306 1.397 11.107-1.8514 20.117-8.2258 22.126-15.654 0.52353-1.9352 0.77708-5.9875 0.56345-9.0053-0.84499-11.937-6.446-16.489-36.592-29.741-27.606-12.136-38.725-19.114-48.156-30.224-4.844-5.7066-10.033-15.629-11.977-22.901-1.9564-7.3186-2.3982-23.766-0.83824-31.207 4.2094-20.08 20.05-36.925 41.03-43.632 16.386-5.2381 38.376-4.6562 54.477 1.4415 10.625 4.0238 22.379 13.824 29.934 24.958l3.9824 5.8694-5.4912 3.5237c-3.0202 1.938-10.691 6.8656-17.046 10.95-6.3554 4.0846-11.704 7.4266-11.885 7.4266-0.18137 0-1.9758-2.3068-3.9878-5.1262-6.28-8.8006-12.892-12.596-23.175-13.3-10.905-0.74746-19.475 3.2551-22.842 10.669-2.0426 4.4972-2.0486 14.248-0.0116 18.732 3.0506 6.7157 11.258 12.03 32.522 21.058 35.304 14.99 51.816 27.482 59.974 45.378 3.9233 8.6062 5.2818 15.847 5.2468 27.965-0.0238 8.2758-0.40604 12.227-1.5682 16.212-7.3892 25.335-26.253 40.656-56.297 45.725-6.9569 1.1737-23.746 1.5824-30.457 0.74137z"/>
 </g>
</svg>
