<?xml version="1.0" encoding="UTF-8" standalone="no"?>
<svg id="svg4138" xmlns:rdf="http://www.w3.org/1999/02/22-rdf-syntax-ns#" xmlns="http://www.w3.org/2000/svg" height="500" width="500" version="1.1" xmlns:cc="http://creativecommons.org/ns#" xmlns:dc="http://purl.org/dc/elements/1.1/" viewBox="0 0 500.00001 500.00001">
 <g id="layer1" transform="translate(0 -552.36)">
  <path id="path5274" style="fill:#0f1a30" d="m242.01 1018.9c-20.602-2.0889-31.175-4.5238-49.928-11.498-83.74-31.13-147.34-103.32-164.64-186.86-1.895-9.14-2.968-20.49-3.419-36.17-0.577-20.07-0.291-24.7 2.341-37.92 4.4529-22.363 11.192-39.901 21.995-57.235 2.9007-4.6546 25.275-33.679 30.095-39.041 0.62987-0.70057-0.35865 2.5636-2.1967 7.2538-21.197 54.088-15.426 118.23 15.675 174.22 32.622 58.724 88.134 103.61 153.52 124.12 25.235 7.9173 62.142 11.707 91.489 9.3946 30.346-2.3911 50.798-7.8209 76.162-20.22 18.24-8.9167 35.053-21.024 47.146-33.952 8.2885-8.8604 8.3191-8.878 5.3645-3.082-17.051 33.45-47.06 65.514-78.273 83.634-41.984 24.373-88.5 33.135-145.32 27.373zm59.913-143.76c-20.943-3.0995-47.891-15.021-70.814-31.326-13.937-9.9136-36.685-33.065-45.411-46.216-13.195-19.887-21.784-40.246-26.318-62.386-2.4758-12.089-2.8002-16.981-2.1887-33.008 0.82745-21.689 3.6677-34.199 11.527-50.77 5.0169-10.578 23.688-38.731 24.889-37.529 0.34516 0.34517-0.33808 2.9388-1.5184 5.7636-2.973 7.1153-6.899 25.804-7.9317 37.757-1.9938 23.077 4.7776 53.797 17.37 78.803 34.429 68.369 115.19 112.18 187.6 101.78 32.868-4.7225 58.266-17.258 80.483-39.726 10.777-10.899 10.742-9.4947-0.22801 9.032-18.113 30.592-46.867 52.741-82.252 63.359-20.941 6.284-59.344 8.299-85.21 4.4708zm53.256-126.33c-28.327-7.5563-54.882-27.461-69.991-52.463-20.343-33.664-20.105-70.51 0.6517-100.68 2.3961-3.4826 4.5764-6.1123 4.8449-5.8438 0.26858 0.26858-0.40138 3.7557-1.4888 7.7492-4.8492 17.808-1.4352 43.862 8.3398 63.646 20.685 41.863 62.401 67.322 110.23 67.274 21.73-0.0219 36.863-4.9585 50.229-16.386l5.34-4.5657-2.2731 4.3956c-1.2502 2.4176-6.8631 8.9978-12.473 14.623-11.537 11.567-23.014 18.262-38.82 22.642-14.275 3.9557-38.957 3.7784-54.593-0.39232z"/>
 </g>
</svg>
