<?xml version="1.0" encoding="UTF-8" standalone="no"?>
<svg id="svg4138" xmlns:rdf="http://www.w3.org/1999/02/22-rdf-syntax-ns#" xmlns="http://www.w3.org/2000/svg" height="500" width="500" version="1.1" xmlns:cc="http://creativecommons.org/ns#" xmlns:dc="http://purl.org/dc/elements/1.1/" viewBox="0 0 500.00001 500.00001">
 <g id="layer1" transform="translate(0 -552.36)">
  <path id="path4" style="fill:#0f1a30" d="m430.76 826.28c-17.367 0.097-32.405 4.269-45.018 10.478-4.657-9.2171-9.3141-17.27-10.09-23.285-0.8732-6.9856-1.9404-11.255-0.8732-19.598 1.0672-8.3439 5.9183-20.181 5.9183-21.151-0.097-0.8732-1.0672-5.1422-11.06-5.2392-9.9933-0.097-18.628 1.9404-19.598 4.56-0.97022 2.6196-2.9107 8.635-4.1719 14.844-1.7464 9.12-19.986 41.428-30.368 58.407-3.3958-6.5975-6.3064-12.419-6.8886-17.076-0.87319-6.9856-1.9404-11.255-0.87319-19.598 1.0672-8.3439 5.9183-20.181 5.9183-21.151-0.097-0.8732-1.0672-5.1422-11.06-5.2392-9.9932-0.097-18.628 1.9404-19.598 4.56-0.97022 2.6196-2.0375 8.829-4.1719 14.844-2.0375 6.0154-26.293 59.96-32.599 74.028-3.2017 7.1796-6.0154 12.904-8.0528 16.785-2.0375 3.8809-0.097 0.29107-0.29106 0.67916-1.7464 3.2987-2.7166 5.1422-2.7166 5.1422v0.097c-1.3583 2.4255-2.8136 4.7541-3.4928 4.7541-0.48511 0-1.4553-6.5005 0.19404-15.426 3.5898-18.725 12.322-47.929 12.225-48.996 0-0.48511 1.6494-5.6273-5.6273-8.2469-7.0826-2.6196-9.6052 1.7464-10.187 1.7464-0.58213 0-1.0672 1.5524-1.0672 1.5524s7.8588-32.89-15.038-32.89c-14.359 0-34.152 15.621-43.951 29.883-6.2094 3.3958-19.404 10.575-33.376 18.24-5.3362 2.9106-10.866 6.0154-16.106 8.829l-1.0672-1.1643c-27.752-29.6-79.077-50.56-76.942-90.34 0.77618-14.456 5.8213-52.586 98.574-98.768 75.968-37.839 136.8-27.457 147.38-4.366 15.038 32.987-32.502 94.305-111.48 103.13-30.077 3.3958-45.891-8.2469-49.869-12.613-4.1719-4.56-4.7541-4.7541-6.3064-3.8809-2.5226 1.3583-0.97022 5.4332 0 7.8588 2.3285 6.1124 12.031 16.979 28.524 22.412 14.456 4.7541 49.772 7.3737 92.462-9.1201 47.832-18.531 85.185-69.953 74.222-112.93-11.158-43.757-83.73-58.116-152.32-33.764-40.846 14.553-85.088 37.256-116.91 67.042-37.839 35.316-43.854 66.169-41.331 78.976 8.829 45.697 71.796 75.483 97.022 97.507-1.2613 0.67915-2.4255 1.3583-3.4928 1.9404-12.613 6.2094-60.639 31.338-72.669 57.922-13.583 30.077 2.1345 51.713 12.613 54.623 32.405 9.023 65.587-7.1796 83.536-33.861 17.852-26.681 15.718-61.318 7.4707-77.132l-0.29106-0.58213 9.8962-5.8213c6.4034-3.7838 12.71-7.2766 18.24-10.284-3.1047 8.4409-5.3362 18.434-6.5005 32.987-1.3583 17.076 5.6273 39.197 14.844 47.929 4.0749 3.7838 8.926 3.8809 11.934 3.8809 10.672 0 15.523-8.829 20.86-19.404 6.5975-12.904 12.419-27.845 12.419-27.845s-7.2766 40.458 12.613 40.458c7.2766 0 14.553-9.4111 17.852-14.262v0.097s0.19404-0.29106 0.58213-0.97022c0.77617-1.1643 1.1643-1.8434 1.1643-1.8434v-0.19404c2.9107-5.0451 9.4111-16.591 19.113-35.704 12.51-24.67 24.54-55.52 24.54-55.52s1.1643 7.5677 4.7541 19.987c2.1345 7.3737 6.7915 15.426 10.381 23.285-2.9107 4.0749-4.657 6.4034-4.657 6.4034l0.097 0.097c-2.3285 3.1047-4.9481 6.4034-7.6647 9.7022-9.8962 11.837-21.733 25.323-23.285 29.204-1.8434 4.56-1.4553 7.9558 2.1345 10.672 2.6196 1.9404 7.2766 2.3285 12.225 1.9404 8.926-0.58213 15.135-2.8136 18.24-4.1719 4.8511-1.7464 10.381-4.366 15.718-8.2468 9.7022-7.1796 15.621-17.367 15.038-30.95-0.29106-7.4707-2.7166-14.844-5.7243-21.83 0.8732-1.2613 1.7464-2.5226 2.6196-3.8809 15.329-22.412 27.166-47.056 27.166-47.056s1.1643 7.5677 4.7541 19.986c1.8434 6.3064 5.5302 13.195 8.829 19.987-14.359 11.74-23.382 25.323-26.487 34.249-5.7243 16.494-1.2613 23.964 7.1796 25.711 3.7838 0.77617 9.2171-0.97022 13.292-2.7166 5.0451-1.6494 11.158-4.463 16.785-8.6349 9.7022-7.1796 19.016-17.173 18.531-30.659-0.29107-6.2094-1.9404-12.322-4.1719-18.143 12.225-5.0451 28.039-7.9558 48.123-5.5302 43.175 5.0451 51.713 32.017 50.063 43.272-1.6494 11.255-10.672 17.464-13.68 19.404-3.0077 1.8434-3.9779 2.5226-3.6868 3.8809 0.38809 2.0375 1.7464 1.9404 4.366 1.5524 3.5898-0.58213 22.703-9.2171 23.479-29.98 1.16-26.68-24.16-55.79-69.08-55.5zm-332.98 112.26c-14.262 15.621-34.346 21.539-42.884 16.494-9.2171-5.3362-5.6273-28.33 11.934-44.921 10.672-10.09 24.547-19.404 33.667-25.129 2.0375-1.2613 5.1422-3.1047 8.829-5.3362 0.58213-0.38809 0.97022-0.58213 0.97022-0.58213 0.67915-0.38809 1.4553-0.8732 2.2315-1.3583 6.5005 23.673 0.29107 44.436-14.747 60.833zm104.3-70.92c-4.9481 12.128-15.426 43.272-21.733 41.525-5.4332-1.4553-8.732-25.032-1.0672-48.317 3.8809-11.74 12.128-25.711 16.979-31.144 7.8588-8.732 16.397-11.643 18.531-8.0528 2.5226 4.657-9.6052 38.421-12.71 45.988zm86.058 41.137c-2.1345 1.0672-4.0749 1.8434-4.9481 1.2613-0.67916-0.38809 0.87319-1.8434 0.87319-1.8434s10.769-11.546 15.038-16.882c2.4256-3.1047 5.3362-6.6945 8.4409-10.769v1.1643c0 13.971-13.389 23.285-19.404 27.069zm66.363-15.135c-1.5524-1.1643-1.3583-4.7541 3.8809-16.009 2.0375-4.463 6.6945-11.934 14.747-19.016 0.97022 2.9107 1.5524 5.7243 1.4553 8.3439-0.097 17.464-12.516 23.964-20.084 26.681z"/>
 </g>
</svg>
